HIERARCHY
ROOT SpineBase
{
  OFFSET 0.000000 0.000000 0.000000
  CHANNELS 6 Xposition Yposition Zposition Zrotation Xrotation Yrotation
  JOINT SpineMid
  {
    OFFSET 0.000000 28.757950 0.000000
    CHANNELS 3 Zrotation Xrotation Yrotation
    JOINT SpineShoulder
    {
      OFFSET -0.146246 21.384696 -0.628822
      CHANNELS 3 Zrotation Xrotation Yrotation
      JOINT Neck
      {
        OFFSET -0.122030 7.071385 -0.495534
        CHANNELS 3 Zrotation Xrotation Yrotation
        JOINT Head
        {
          OFFSET 1.234630 13.270511 -1.722963
          CHANNELS 3 Zrotation Xrotation Yrotation
          End Site
          {
            OFFSET 0 0 0
          }
        }
      }
      JOINT ShoulderLeft
      {
        OFFSET -16.451012 -3.860475 -2.690270
        CHANNELS 3 Zrotation Xrotation Yrotation
        JOINT ElbowLeft
        {
          OFFSET -3.659044 -27.020823 0.989636
          CHANNELS 3 Zrotation Xrotation Yrotation
          JOINT WristLeft
          {
            OFFSET -0.456384 -21.980018 -6.135073
            CHANNELS 3 Zrotation Xrotation Yrotation
            JOINT HandLeft
            {
              OFFSET 0.724031 -3.212987 1.168746
              CHANNELS 3 Zrotation Xrotation Yrotation
              JOINT HandTipLeft
              {
                OFFSET -1.061363 -5.859320 -0.310711
                CHANNELS 3 Zrotation Xrotation Yrotation
                End Site
                {
                  OFFSET 0 0 0
                }
              }
              JOINT ThumbLeft
              {
                OFFSET 1.698587 -0.503343 -2.512011
                CHANNELS 3 Zrotation Xrotation Yrotation
                End Site
                {
                  OFFSET 0 0 0
                }
              }
            }
          }
        }
      }
      JOINT ShoulderRight
      {
        OFFSET 15.331903 -5.272175 -2.453441
        CHANNELS 3 Zrotation Xrotation Yrotation
        JOINT ElbowRight
        {
          OFFSET 3.398378 -25.756909 2.702749
          CHANNELS 3 Zrotation Xrotation Yrotation
          JOINT WristRight
          {
            OFFSET 1.747183 -22.191390 -4.520627
            CHANNELS 3 Zrotation Xrotation Yrotation
            JOINT HandRight
            {
              OFFSET -0.680724 -2.442562 0.578160
              CHANNELS 3 Zrotation Xrotation Yrotation
              JOINT HandTipRight
              {
                OFFSET 0.897074 -5.526363 -0.521523
                CHANNELS 3 Zrotation Xrotation Yrotation
                End Site
                {
                  OFFSET 0 0 0
                }
              }
              JOINT ThumbRight
              {
                OFFSET 1.520037 0.492174 -2.596294
                CHANNELS 3 Zrotation Xrotation Yrotation
                End Site
                {
                  OFFSET 0 0 0
                }
              }
            }
          }
        }
      }
    }
  }
  JOINT HipLeft
  {
    OFFSET -8.186348 0.603586 -3.136604
    CHANNELS 3 Zrotation Xrotation Yrotation
    JOINT KneeLeft
    {
      OFFSET 0.321282 -29.337375 5.764902
      CHANNELS 3 Zrotation Xrotation Yrotation
      JOINT AnkleLeft
      {
        OFFSET 4.953653 -32.284460 9.098014
        CHANNELS 3 Zrotation Xrotation Yrotation
        JOINT FootLeft
        {
          OFFSET -1.613105 -7.181352 -3.650765
          CHANNELS 3 Zrotation Xrotation Yrotation
          End Site
          {
            OFFSET 0 0 0
          }
        }
      }
    }
  }
  JOINT HipRight
  {
    OFFSET 6.754583 0.409889 -3.437170
    CHANNELS 3 Zrotation Xrotation Yrotation
    JOINT KneeRight
    {
      OFFSET -1.838688 -27.725932 6.467754
      CHANNELS 3 Zrotation Xrotation Yrotation
      JOINT AnkleRight
      {
        OFFSET 0.324857 -31.127496 9.083772
        CHANNELS 3 Zrotation Xrotation Yrotation
        JOINT FootRight
        {
          OFFSET -5.136757 -8.780975 -0.546866
          CHANNELS 3 Zrotation Xrotation Yrotation
          End Site
          {
            OFFSET 0 0 0
          }
        }
      }
    }
  }
}
MOTION
Frames: 12
Frame Time: 0.033333
81.032297 68.421578 358.361010 0.344766 -0.412140 -0.162027 -0.345939 0.411156 0.164508 0.275712 -0.796197 0.007492 -1.297859 2.827152 -0.293421 0.000000 0.000000 0.000000 1.658548 1.566569 -0.077235 -3.232852 -0.387761 0.361858 13.212169 -25.435475 0.934842 -8.022864 27.495762 1.480353 0.000000 0.000000 0.000000 0.000000 0.000000 0.000000 0.674081 0.704130 0.071323 -0.949509 0.093373 -0.086646 -2.630705 18.467515 -5.561022 -4.574782 -32.047455 1.509072 0.000000 0.000000 0.000000 0.000000 0.000000 0.000000 -2.121197 -0.864548 -0.205298 3.291109 -1.179019 0.386573 -5.553005 22.439494 -1.471018 0.000000 0.000000 0.000000 -0.345939 0.411156 0.164508 -1.465005 -2.748334 -0.488027 0.089466 19.846186 -9.141824 0.000000 0.000000 0.000000
81.075598 68.367284 358.310672 0.300211 -0.483088 -0.092784 -0.301004 0.482594 0.095317 0.225753 -0.839243 0.002989 -0.869972 2.939826 -0.257978 0.000000 0.000000 0.000000 1.670880 1.548464 -0.065949 -2.892194 -0.373262 0.276396 10.203819 -25.744177 -0.521107 -6.174258 27.841012 2.120999 0.000000 0.000000 0.000000 0.000000 0.000000 0.000000 0.706824 0.670611 0.063552 -0.932273 0.169760 -0.074140 -0.725995 17.883925 -5.265844 -6.475155 -32.257617 0.505236 0.000000 0.000000 0.000000 0.000000 0.000000 0.000000 -2.102947 -0.621907 -0.272798 2.157105 -1.429237 0.058151 -1.849004 23.648663 -3.124980 0.000000 0.000000 0.000000 -0.289048 -0.329115 0.151515 -1.608059 -1.802046 -0.559770 1.468199 21.983385 -10.804402 0.000000 0.000000 0.000000
81.121810 68.264195 358.246951 0.252235 -0.506504 -0.045038 -0.252642 0.506300 0.047269 0.150018 -0.829172 -0.002710 -0.388888 2.865409 -0.208308 0.000000 0.000000 0.000000 1.723067 1.496435 -0.055020 -1.872430 -0.668272 0.010964 9.328526 -24.678084 -0.184640 -6.012892 27.000470 1.925544 0.000000 0.000000 0.000000 0.000000 0.000000 0.000000 0.788107 0.592724 0.060400 -0.937839 0.237506 -0.065217 1.196276 17.600709 -5.042493 -9.331679 -32.162804 -0.631264 0.000000 0.000000 0.000000 0.000000 0.000000 0.000000 -2.346785 -0.921479 -0.386774 0.977906 -0.480686 -0.198117 -0.433573 30.763398 -4.311402 0.000000 0.000000 0.000000 -0.169601 -0.782614 0.151809 -1.869230 -0.857235 -0.637536 3.137143 25.400508 -13.558618 0.000000 0.000000 0.000000
81.166902 68.127714 358.188941 0.197879 -0.497216 -0.072421 -0.198515 0.496963 0.074141 -0.000000 0.000000 0.000000 0.210475 1.859007 -0.149397 0.000000 0.000000 0.000000 1.814516 0.552811 -0.017192 -1.814434 -0.553078 -0.000320 8.868248 -20.482090 0.159184 -4.076721 22.215256 0.606968 0.000000 0.000000 0.000000 0.000000 0.000000 0.000000 0.899798 -0.275493 0.060157 -0.899519 0.276404 -0.055824 2.772212 16.370881 -4.518326 -11.360967 -29.683108 -1.208995 0.000000 0.000000 0.000000 0.000000 0.000000 0.000000 -2.354675 -1.476083 -0.388687 -0.937936 0.812433 -0.566350 8.438341 27.411057 -8.263002 0.000000 0.000000 0.000000 -0.029604 -1.439930 0.242181 -2.124868 0.263914 -0.713236 5.787490 29.555632 -17.318746 0.000000 0.000000 0.000000
81.207078 67.967984 358.129269 0.167620 -0.510321 -0.070563 -0.168255 0.510112 0.072059 -0.000000 0.000000 0.000000 0.504263 1.753072 -0.105608 0.000000 0.000000 0.000000 1.741374 0.430525 -0.001063 -1.726384 -1.355598 0.003210 7.860892 -13.578028 0.425132 -2.194829 15.384244 -0.510357 0.000000 0.000000 0.000000 0.000000 0.000000 0.000000 0.849474 -0.273067 0.055068 -0.849221 0.273853 -0.051014 4.484757 15.657698 -4.123398 -12.410753 -27.606131 -1.393105 0.000000 0.000000 0.000000 0.000000 0.000000 0.000000 -2.291933 -2.050438 -0.400591 -3.159664 2.184023 -0.931756 13.971511 24.308079 -9.516772 0.000000 0.000000 0.000000 0.044285 -2.182825 0.301367 -2.272899 1.916128 -0.749380 17.227488 41.951867 -32.356135 0.000000 0.000000 0.000000
81.245824 67.798877 358.067891 0.156325 -0.505722 -0.048841 -0.156762 0.505587 0.050222 -0.000000 0.000000 0.000000 0.719266 1.660827 -0.071743 0.000000 0.000000 0.000000 1.660539 0.310625 0.014286 -1.615192 -1.760673 -0.005124 6.646871 -6.468378 0.896791 -0.880978 7.517900 -1.163385 0.000000 0.000000 0.000000 0.000000 0.000000 0.000000 -0.000000 0.000000 0.000000 -0.503070 0.789723 0.167949 6.268889 15.273304 -4.240449 -13.649970 -29.649540 -2.217593 0.000000 0.000000 0.000000 0.000000 0.000000 0.000000 -2.067095 -2.703499 -0.395250 -5.639325 3.682071 -1.250985 16.472517 21.153022 -8.494347 0.000000 0.000000 0.000000 0.033663 -2.957322 0.325836 -2.259669 3.842009 -0.738814 28.138341 46.984438 -44.553160 0.000000 0.000000 0.000000
81.284036 67.642333 357.996356 0.148113 -0.509110 0.003032 -0.148092 0.509116 -0.001716 -0.000000 0.000000 0.000000 0.920281 1.684739 -0.050932 0.000000 0.000000 0.000000 1.586000 0.211798 0.026530 -1.545331 -2.055687 -0.004818 5.332087 1.288810 1.636848 0.304669 -0.206077 -1.970214 0.000000 0.000000 0.000000 0.000000 0.000000 0.000000 -0.000000 0.000000 0.000000 -0.547853 1.043343 0.198447 7.117203 15.470248 -4.321983 -14.136435 -30.697312 -2.522878 0.000000 0.000000 0.000000 0.000000 0.000000 0.000000 -1.909815 -3.145885 -0.426000 -8.085491 4.758448 -1.568408 20.439801 26.713351 -10.655561 0.000000 0.000000 0.000000 0.001173 -3.652589 0.310728 -2.089864 5.891655 -0.688899 36.719289 49.106359 -54.128008 0.000000 0.000000 0.000000
81.317659 67.514963 357.931587 0.160566 -0.501314 0.128404 -0.159448 0.501671 -0.127003 -0.000000 0.000000 0.000000 1.040237 1.761710 -0.044975 0.000000 0.000000 0.000000 1.560312 0.191148 0.028717 -1.846148 -2.423439 0.085973 5.879749 7.535156 2.631127 -0.305687 -7.970725 -2.686416 0.000000 0.000000 0.000000 0.000000 0.000000 0.000000 -0.000000 0.000000 0.000000 -0.537527 1.190308 0.208440 8.317026 15.306380 -4.176099 -15.675190 -30.274495 -2.998054 0.000000 0.000000 0.000000 0.000000 0.000000 0.000000 -1.856556 -3.364875 -0.541060 -9.816141 5.201826 -1.834439 23.413452 35.243716 -13.556800 0.000000 0.000000 0.000000 -0.050018 -4.191206 0.212635 -1.951144 7.488881 -0.652587 41.105184 49.766469 -59.197285 0.000000 0.000000 0.000000
81.343852 67.424214 357.860691 0.184536 -0.462321 0.315916 -0.181990 0.463329 -0.314436 -0.000000 0.000000 0.000000 1.050351 1.824649 -0.050270 0.000000 0.000000 0.000000 1.521645 0.157784 0.032331 -2.225714 -2.750230 0.196961 5.836686 13.398890 3.389583 -0.122798 -14.990576 -3.206113 0.000000 0.000000 0.000000 0.000000 0.000000 0.000000 -0.000000 0.000000 0.000000 -0.461297 1.342244 0.204635 9.242567 16.085405 -4.404445 -16.202775 -32.387442 -3.438127 0.000000 0.000000 0.000000 0.000000 0.000000 0.000000 -1.887809 -3.417637 -0.729466 -10.314139 5.054430 -1.978229 22.491162 38.883271 -13.340676 0.000000 0.000000 0.000000 -0.144902 -4.572135 0.032584 -1.730847 8.456705 -0.609419 41.515142 49.515663 -59.789787 0.000000 0.000000 0.000000
81.355185 67.381939 357.776142 0.196390 -0.408520 0.495010 -0.192858 0.410199 -0.493620 -0.000000 0.000000 0.000000 1.038820 1.717814 -0.040640 0.000000 0.000000 0.000000 1.487661 0.097176 0.040140 -2.486041 -2.864250 0.269174 5.091541 17.289601 3.818396 -0.543629 -19.382642 -3.579674 0.000000 0.000000 0.000000 0.000000 0.000000 0.000000 -0.000000 0.000000 0.000000 -0.317910 1.485212 0.185374 9.190136 18.730058 -5.467306 -18.972328 -36.934990 -4.801017 0.000000 0.000000 0.000000 0.000000 0.000000 0.000000 -2.009859 -3.311726 -0.928712 -9.093199 4.272571 -1.912108 16.299694 41.314318 -10.232390 0.000000 0.000000 0.000000 -0.242773 -4.721775 -0.159740 -1.442399 8.557749 -0.561802 36.724612 48.468353 -54.874958 0.000000 0.000000 0.000000
81.355911 67.336995 357.684168 0.198839 -0.341254 0.692996 -0.194701 0.343632 -0.691820 -0.000000 0.000000 0.000000 1.002441 1.576131 -0.030359 0.000000 0.000000 0.000000 1.453855 0.043885 0.046832 -2.584498 -2.735614 0.297745 5.928476 17.773714 4.030456 -1.520112 -18.740349 -4.347308 0.000000 0.000000 0.000000 0.000000 0.000000 0.000000 -0.000000 0.000000 0.000000 -0.146721 1.640060 0.160671 8.771728 21.095659 -6.458066 -18.934912 -39.773287 -4.801171 0.000000 0.000000 0.000000 0.000000 0.000000 0.000000 -2.496917 -2.829558 -1.219021 -7.979480 2.749539 -2.027654 16.592513 42.527482 -11.167911 0.000000 0.000000 0.000000 -0.261702 -4.754500 -0.360762 -1.422995 8.097048 -0.566146 36.872092 48.843593 -55.194431 0.000000 0.000000 0.000000
81.359689 67.276732 357.596257 0.214764 -0.285819 0.783809 -0.210837 0.288728 -0.782742 -0.000000 0.000000 0.000000 0.913053 1.462312 -0.029229 0.000000 0.000000 0.000000 1.438835 -0.034974 0.057973 -2.847825 -2.754597 0.362769 7.377241 18.747371 4.308751 -2.673735 -18.947817 -5.223434 0.000000 0.000000 0.000000 0.000000 0.000000 0.000000 0.365453 0.897915 0.154020 -0.291082 0.886751 -0.034340 7.692537 23.347791 -7.414355 -17.233506 -43.055801 -4.182754 0.000000 0.000000 0.000000 0.000000 0.000000 0.000000 -2.468450 -2.949707 -1.303195 -8.191028 2.769170 -2.074116 14.826442 45.822094 -10.380509 0.000000 0.000000 0.000000 -0.283713 -4.920030 -0.443979 -1.459725 7.887540 -0.584254 37.050169 49.128576 -55.436449 0.000000 0.000000 0.000000
